<?xml version="1.0" standalone="no"?>
<!DOCTYPE svg PUBLIC "-//W3C//DTD SVG 20010904//EN"
 "http://www.w3.org/TR/2001/REC-SVG-20010904/DTD/svg10.dtd">
<svg version="1.0" xmlns="http://www.w3.org/2000/svg"
 width="500.000000pt" height="500.000000pt" viewBox="0 0 500.000000 500.000000"
 preserveAspectRatio="xMidYMid meet">

<g transform="translate(0.000000,500.000000) scale(0.100000,-0.100000)"
fill="#000000" stroke="none">
<path d="M1155 2780 c3 -5 1 -10 -5 -10 -7 0 -5 -11 6 -28 16 -27 15 -34 -5
-120 -12 -50 -21 -95 -20 -99 1 -4 -1 -15 -4 -23 -8 -20 -57 -239 -57 -256 0
-19 20 -17 36 4 13 16 14 16 8 -1 -6 -17 2 -18 145 -13 103 3 159 9 172 18 14
10 28 56 58 198 22 102 47 214 55 249 11 47 12 69 4 78 -13 16 -403 19 -393 3z
m219 -250 c-26 -114 -32 -160 -25 -172 8 -12 7 -19 -1 -24 -7 -4 -8 -3 -4 4 4
7 2 12 -3 12 -6 0 -11 -5 -11 -11 0 -5 -5 -7 -11 -3 -6 3 -15 0 -20 -7 -6 -10
-9 -11 -9 -1 0 18 -40 15 -64 -5 -20 -17 -20 -17 -6 1 14 18 13 19 -5 13 -17
-6 -18 -5 -4 5 16 14 63 213 54 229 -4 5 -1 9 4 9 6 0 11 8 11 18 0 9 5 34 10
54 10 35 13 37 58 40 26 2 50 1 54 -2 3 -3 -9 -75 -28 -160z"/>
<path d="M1706 2773 c-10 -38 -47 -212 -50 -235 -1 -13 -5 -28 -8 -33 -15 -26
-52 -245 -43 -254 14 -14 325 -20 325 -7 0 7 3 6 8 -1 13 -21 29 0 41 55 6 29
10 56 9 60 0 4 2 14 5 22 15 37 86 382 81 395 -7 18 -21 19 -27 3 -4 -10 -6
-10 -6 0 -1 9 -41 12 -165 12 -148 0 -165 -2 -170 -17z m227 -105 c-11 -13
-19 -44 -28 -103 -3 -16 -14 -66 -25 -110 -11 -44 -19 -90 -17 -103 3 -12 0
-25 -6 -29 -6 -4 -7 -1 -2 6 6 10 -8 12 -58 9 -43 -2 -63 0 -57 7 11 14 41
165 34 176 -3 5 -1 9 4 9 8 0 37 129 33 147 -2 10 111 20 123 11 5 -4 5 -12
-1 -20z"/>
<path d="M2186 2755 l26 -35 -21 -95 c-11 -52 -20 -99 -19 -103 0 -4 -2 -14
-5 -22 -7 -18 -57 -240 -57 -255 0 -6 27 -10 65 -10 36 0 65 1 65 3 0 1 9 43
20 94 19 84 20 95 6 135 -8 24 -11 41 -6 38 22 -13 39 11 55 78 9 40 19 80 22
90 3 14 16 17 63 17 l60 0 -8 -32 c-4 -18 -7 -47 -7 -65 0 -17 -3 -29 -6 -27
-4 2 -9 -5 -12 -16 -3 -11 -21 -27 -41 -36 -19 -10 -33 -21 -30 -26 3 -4 -1
-6 -8 -3 -7 3 -19 1 -27 -4 -12 -8 -12 -17 -1 -58 7 -26 14 -49 15 -51 2 -2
41 16 88 40 74 36 84 44 74 58 -10 13 -10 13 4 2 34 -26 45 -5 78 150 26 121
30 152 19 159 -7 4 -109 8 -226 8 l-212 0 26 -34z m221 -31 c-3 -3 -12 -4 -19
-1 -8 3 -5 6 6 6 11 1 17 -2 13 -5z"/>
</g>
</svg>
